<svg width="2836" height="2800" viewBox="0 0 2836 2800" fill="none" xmlns="http://www.w3.org/2000/svg">
<path d="M2446 2298.43C2276.76 2476.96 2052.15 2607.88 1782.7 2660.74C1162.27 2782.44 323.641 2596.93 134.783 1912.86C19.6781 1495.94 100.275 1008.29 336.715 647.042C596.597 249.975 1065.76 -17.956 1545.93 0.939968C2015.74 19.428 2476.22 389.26 2670.85 800.597C2916.29 1319.32 2807.27 1917.34 2446 2298.43Z" fill="url(#paint0_linear)"/>
<g opacity="0.3">
<path opacity="0.3" d="M802.079 290.936C797.284 293.836 791.046 292.297 788.149 287.503C782.517 278.188 776.398 268.979 769.959 260.131C766.701 255.655 767.641 249.406 772.035 246.078C772.087 246.039 772.139 245.999 772.193 245.958C776.723 242.662 783.068 243.663 786.365 248.194C793.141 257.507 799.585 267.201 805.512 277.008C808.224 281.491 807.052 287.239 802.964 290.335C802.682 290.549 802.388 290.752 802.079 290.936ZM735.665 219.217C728.084 211.333 720.095 203.7 711.91 196.522C707.701 192.831 707.278 186.421 710.971 182.207C714.693 177.992 721.076 177.577 725.289 181.271C733.9 188.822 742.311 196.857 750.289 205.151C754.172 209.189 754.046 215.612 750.008 219.496C749.715 219.778 749.408 220.039 749.092 220.279C745.049 223.339 739.266 222.962 735.665 219.217ZM669.443 164.217C660.323 158.235 650.832 152.578 641.227 147.4C636.297 144.742 634.454 138.587 637.112 133.656C639.773 128.733 645.922 126.885 650.856 129.541C660.97 134.994 670.967 140.953 680.569 147.252C685.254 150.325 686.559 156.613 683.489 161.299C682.833 162.297 682.032 163.143 681.132 163.825C677.81 166.342 673.129 166.635 669.443 164.217ZM592.584 125.41C582.345 121.613 571.822 118.219 561.307 115.315C555.907 113.822 552.737 108.235 554.228 102.836C555.725 97.438 561.31 94.272 566.707 95.757C577.779 98.815 588.856 102.391 599.634 106.382C604.886 108.33 607.567 114.167 605.62 119.42C604.923 121.3 603.729 122.85 602.241 123.977C599.57 126 595.958 126.658 592.584 125.41ZM508.995 104.692C498.195 103.268 487.178 102.285 476.257 101.778C470.659 101.514 466.335 96.766 466.596 91.17C466.856 85.57 471.607 81.246 477.204 81.512C488.694 82.047 500.285 83.081 511.649 84.58C517.203 85.311 521.112 90.407 520.378 95.963C520.01 98.762 518.532 101.143 516.446 102.723C514.393 104.278 511.751 105.055 508.995 104.692ZM422.906 102.986C412.042 103.986 401.087 105.467 390.343 107.386C384.828 108.371 379.557 104.698 378.573 99.185C377.587 93.669 381.256 88.399 386.774 87.412C398.08 85.391 409.614 83.835 421.047 82.782C426.626 82.27 431.564 86.375 432.079 91.954C432.413 95.578 430.796 98.93 428.093 100.977C426.634 102.081 424.862 102.806 422.906 102.986ZM106.208 306.968C101.281 304.302 99.448 298.145 102.115 293.217C107.58 283.124 113.56 273.132 119.888 263.524C122.97 258.844 129.261 257.549 133.94 260.632C138.618 263.711 139.912 270.002 136.832 274.681C130.823 283.805 125.146 293.293 119.958 302.878C119.246 304.193 118.287 305.286 117.168 306.134C114.094 308.461 109.82 308.925 106.208 306.968ZM338.631 120.394C328.267 123.784 317.924 127.664 307.89 131.933C302.732 134.124 296.775 131.721 294.583 126.566C292.39 121.408 294.807 115.476 299.951 113.261C310.518 108.768 321.41 104.68 332.325 101.112C337.65 99.371 343.378 102.275 345.12 107.602C346.501 111.825 344.959 116.303 341.604 118.844C340.731 119.505 339.731 120.033 338.631 120.394ZM154.909 233.177C150.705 229.476 150.298 223.064 154 218.859C161.585 210.248 169.643 201.849 177.943 193.894C181.975 189.996 188.41 190.158 192.287 194.201C196.162 198.245 196.025 204.667 191.98 208.545C184.091 216.105 176.433 224.086 169.227 232.272C168.767 232.794 168.264 233.255 167.73 233.659C163.964 236.509 158.589 236.419 154.909 233.177ZM260.375 156.194C251.036 161.814 241.818 167.91 232.974 174.319C228.438 177.61 222.096 176.597 218.807 172.059C215.563 167.582 216.507 161.345 220.894 158.022C220.951 157.979 221.009 157.935 221.068 157.895C230.376 151.145 240.081 144.725 249.908 138.809C254.711 135.923 260.943 137.471 263.833 142.271C266.532 146.753 265.356 152.49 261.275 155.581C260.99 155.798 260.687 156.002 260.375 156.194Z" fill="#91B3FA"/>
<path opacity="0.3" d="M89.065 371.589C90.657 370.383 91.913 368.697 92.578 366.652C94.197 361.678 95.95 356.658 97.78 351.723C99.731 346.473 97.055 340.631 91.804 338.682C86.552 336.729 80.706 339.402 78.763 344.661C76.834 349.849 74.993 355.131 73.287 360.364C71.551 365.69 74.463 371.418 79.787 373.152C83.072 374.223 86.506 373.526 89.065 371.589Z" fill="#91B3FA"/>
</g>
<g opacity="0.3">
<path opacity="0.3" d="M115.681 679.719C119.584 676.763 120.876 671.331 118.502 666.871C116.044 662.256 113.64 657.51 111.362 652.769C108.934 647.718 102.873 645.593 97.824 648.019C92.754 650.457 90.649 656.509 93.075 661.557C95.476 666.548 98.005 671.547 100.593 676.407C103.226 681.352 109.37 683.226 114.316 680.594C114.801 680.335 115.256 680.041 115.681 679.719Z" fill="#91B3FA"/>
<path opacity="0.3" d="M686.552 821.179C681.926 824.339 675.613 823.15 672.452 818.52C669.294 813.893 670.485 807.593 675.111 804.423C683.92 798.408 692.608 791.924 701.039 785.082C705.356 781.554 711.779 782.218 715.309 786.568C718.839 790.918 718.174 797.306 713.825 800.839C710.172 803.803 706.485 806.696 702.764 809.513C697.455 813.533 692.001 817.459 686.552 821.179ZM739.951 763.627C735.867 759.796 735.66 753.376 739.493 749.291C746.849 741.444 753.956 733.204 760.611 724.795C764.07 720.396 770.467 719.658 774.862 723.134C779.253 726.609 779.996 732.99 776.52 737.381C769.514 746.235 762.035 754.912 754.291 763.166C753.89 763.594 753.459 763.98 753.007 764.322C749.138 767.253 743.611 767.059 739.951 763.627ZM638.873 849.152C628.77 854.183 618.313 858.851 607.79 863.022C602.582 865.087 596.686 862.539 594.619 857.329C592.555 852.122 595.106 846.233 600.312 844.16C610.306 840.2 620.235 835.769 629.827 830.99C634.843 828.494 640.933 830.533 643.432 835.55C645.641 839.986 644.297 845.264 640.484 848.151C639.988 848.527 639.45 848.864 638.873 849.152ZM793.891 695.363C789.063 692.523 787.45 686.303 790.293 681.476C795.741 672.221 800.855 662.621 805.499 652.947C807.923 647.891 813.98 645.765 819.033 648.191C824.084 650.614 826.213 656.672 823.79 661.722C818.9 671.911 813.513 682.02 807.778 691.766C807.084 692.943 806.192 693.931 805.165 694.709C801.986 697.116 797.54 697.511 793.891 695.363ZM555.162 879.803C544.207 882.487 532.983 884.738 521.801 886.496C516.267 887.367 511.077 883.588 510.205 878.055C509.332 872.518 513.115 867.326 518.649 866.456C529.271 864.785 539.931 862.647 550.335 860.097C555.778 858.764 561.27 862.096 562.603 867.538C563.596 871.593 562 875.674 558.872 878.043C557.8 878.853 556.548 879.464 555.162 879.803ZM466.758 891.351C455.454 891.576 444.008 891.325 432.74 890.609C427.148 890.251 422.904 885.432 423.26 879.839C423.618 874.24 428.438 869.998 434.029 870.361C444.736 871.041 455.613 871.279 466.356 871.067C471.958 870.955 476.588 875.407 476.7 881.009C476.765 884.384 475.175 887.407 472.675 889.301C471.025 890.551 468.982 891.308 466.758 891.351ZM377.934 883.36C366.843 881.117 355.723 878.379 344.887 875.227C339.506 873.661 336.416 868.032 337.98 862.653C339.547 857.266 345.176 854.182 350.554 855.746C360.852 858.744 371.415 861.342 381.957 863.474C387.448 864.585 391 869.938 389.888 875.427C389.378 877.95 387.975 880.062 386.073 881.502C383.833 883.198 380.903 883.96 377.934 883.36ZM292.97 856.183C282.639 851.57 272.386 846.461 262.495 840.997C257.591 838.289 255.81 832.117 258.52 827.212C261.224 822.316 267.401 820.532 272.305 823.24C281.695 828.426 291.43 833.277 301.245 837.66C306.36 839.945 308.655 845.941 306.37 851.057C305.648 852.673 304.557 854.006 303.24 855.004C300.386 857.163 296.473 857.746 292.97 856.183ZM216.015 810.976C206.977 804.216 198.109 796.979 189.654 789.464C185.466 785.741 185.087 779.328 188.811 775.141C192.523 770.968 198.943 770.575 203.131 774.298C211.162 781.438 219.585 788.31 228.17 794.734C232.655 798.088 233.572 804.447 230.216 808.932C229.632 809.713 228.957 810.388 228.216 810.949C224.703 813.608 219.719 813.748 216.015 810.976ZM150.932 750.04C145.516 743.728 140.227 737.17 135.216 730.552C133.4 728.154 131.619 725.746 129.865 723.321C126.583 718.784 127.478 712.394 132.138 709.159C136.675 705.873 143.018 706.89 146.304 711.43C147.97 713.732 149.666 716.027 151.391 718.305C156.157 724.598 161.18 730.829 166.33 736.831C169.978 741.081 169.488 747.487 165.236 751.134C165.076 751.27 164.913 751.403 164.747 751.529C160.505 754.739 154.441 754.132 150.932 750.04Z" fill="#91B3FA"/>
<path opacity="0.3" d="M840.782 615.084C842.39 613.866 843.651 612.161 844.313 610.098C845.989 604.868 847.585 599.503 849.058 594.153C850.547 588.751 847.374 583.166 841.973 581.679C836.571 580.193 830.987 583.358 829.499 588.764C828.099 593.846 826.581 598.941 824.992 603.908C823.281 609.24 826.22 614.952 831.556 616.662C834.828 617.709 838.239 617.009 840.782 615.084Z" fill="#91B3FA"/>
</g>
<path d="M761.349 460.374C761.422 458.352 760.205 456.507 758.318 455.779L704.484 434.999C699.295 408.554 689.851 382.748 676.096 358.667L703.218 307.775C704.169 305.99 703.883 303.798 702.505 302.316L655.37 251.628C653.993 250.146 651.826 249.702 649.978 250.521L597.251 273.88C574.232 258.414 549.177 247.122 523.179 240.028L506.361 184.828C505.771 182.893 504.019 181.546 501.998 181.472L432.826 178.959C430.805 178.886 428.959 180.103 428.231 181.99L407.452 235.824C381.007 241.012 355.2 250.455 331.119 264.212L280.227 237.09C278.442 236.138 276.25 236.424 274.769 237.802L224.079 284.937C222.598 286.315 222.154 288.48 222.973 290.329L246.332 343.056C230.865 366.075 219.574 391.13 212.481 417.128L157.28 433.946C155.346 434.536 153.997 436.287 153.924 438.309L151.411 507.481C151.338 509.502 152.555 511.348 154.441 512.076L208.277 532.856C213.465 559.301 222.909 585.107 236.665 609.188L209.543 660.081C208.591 661.866 208.877 664.058 210.254 665.539L257.39 716.228C258.768 717.709 260.933 718.153 262.782 717.334L315.509 693.976C338.528 709.443 363.583 720.734 389.581 727.828L406.399 783.028C406.988 784.963 408.74 786.311 410.762 786.384L479.934 788.897C481.955 788.97 483.8 787.753 484.529 785.867L505.308 732.032C531.753 726.844 557.559 717.4 581.641 703.645L632.533 730.767C634.317 731.717 636.509 731.432 637.991 730.054L688.679 682.919C690.16 681.542 690.605 679.376 689.785 677.527L666.427 624.801C681.894 601.781 693.184 576.727 700.278 550.729L755.478 533.911C757.413 533.322 758.76 531.569 758.834 529.548L761.349 460.374Z" fill="#91B3FA"/>
<path d="M489.847 544.925C456.212 563.377 413.837 551.03 395.382 517.393C386.441 501.1 384.382 482.3 389.583 464.459C394.781 446.62 406.615 431.867 422.913 422.93C456.548 404.478 498.923 416.826 517.379 450.462C534.167 481.062 525.461 518.895 498.423 539.37C495.743 541.4 492.879 543.261 489.847 544.925ZM405.166 469.001C401.179 482.682 402.758 497.094 409.613 509.589C423.761 535.374 456.254 544.846 482.041 530.697C507.841 516.553 517.298 484.056 503.149 458.267C489.001 432.482 456.508 423.01 430.721 437.159C428.383 438.443 426.169 439.88 424.081 441.462C415.012 448.328 408.407 457.883 405.166 469.001Z" fill="#BDD0FB"/>
<path d="M557.955 620.342C562.599 616.826 567.092 613.055 571.417 609.035C572.778 607.77 574.119 606.482 575.439 605.173C581.947 598.719 587.931 591.757 593.299 584.396C593.372 584.296 593.445 584.196 593.519 584.096C593.725 583.811 593.932 583.525 594.135 583.236C594.536 582.679 594.93 582.117 595.323 581.556C596.356 580.078 596.267 578.152 595.235 576.786C594.984 576.454 594.676 576.156 594.317 575.905C592.48 574.622 589.953 575.079 588.669 576.911C582.069 586.368 574.405 595.174 565.89 603.088C523.608 642.419 465.832 654.915 413.699 641.368C384.701 633.837 357.449 618.243 335.579 594.722C331.743 590.598 328.143 586.311 324.791 581.881C302.221 552.07 290.687 515.707 292.064 477.837C293.643 434.337 312.069 394.054 343.944 364.414C409.782 303.204 513.068 306.979 574.255 372.779C578.028 376.836 581.581 381.069 584.902 385.458C599.298 404.475 609.373 426.43 614.326 449.784C614.455 450.387 614.709 450.93 615.06 451.39C615.979 452.603 617.548 453.248 619.137 452.91C621.329 452.438 622.734 450.295 622.264 448.097C617.063 423.579 606.488 400.526 591.375 380.562C587.889 375.955 584.159 371.513 580.201 367.253C515.96 298.167 407.48 294.251 338.419 358.468C304.954 389.586 285.613 431.873 283.955 477.54C282.508 517.297 294.618 555.471 318.311 586.767C321.832 591.417 325.611 595.917 329.634 600.247C360.755 633.712 403.042 653.056 448.708 654.715C488.473 656.162 526.656 644.044 557.955 620.342Z" fill="#BDD0FB"/>
<g opacity="0.3">
<path opacity="0.3" d="M1240.33 294.468C1242.49 292.832 1243.41 289.915 1242.4 287.251C1240.51 282.278 1238.45 277.293 1236.27 272.438C1234.85 269.283 1231.14 267.876 1227.98 269.293C1224.82 270.701 1223.42 274.421 1224.84 277.577C1226.92 282.204 1228.89 286.954 1230.69 291.7C1231.91 294.933 1235.53 296.559 1238.77 295.336C1239.34 295.116 1239.86 294.821 1240.33 294.468Z" fill="#91B3FA"/>
<path opacity="0.3" d="M1218.64 251.528C1215.68 253.323 1211.83 252.387 1210.03 249.428C1205.49 241.968 1200.51 234.653 1195.24 227.692C1194.13 226.224 1193 224.764 1191.84 223.31C1189.7 220.597 1190.16 216.657 1192.87 214.51C1195.52 212.583 1199.53 212.826 1201.68 215.541C1202.88 217.064 1204.07 218.592 1205.23 220.128C1210.76 227.425 1215.97 235.094 1220.73 242.92C1222.42 245.688 1221.7 249.249 1219.17 251.166C1219 251.292 1218.82 251.411 1218.64 251.528ZM1170.63 199.599C1163.1 192.154 1155.04 185.107 1146.68 178.661C1143.94 176.546 1143.43 172.618 1145.54 169.874C1147.65 167.151 1151.59 166.623 1154.33 168.738C1163.09 175.494 1171.54 182.88 1179.43 190.688C1181.89 193.122 1181.92 197.089 1179.49 199.553C1179.27 199.768 1179.04 199.965 1178.81 200.144C1176.36 201.995 1172.87 201.816 1170.63 199.599ZM1120.31 160.843C1111.2 155.477 1101.66 150.63 1091.94 146.429C1088.77 145.056 1087.31 141.367 1088.68 138.193C1090.06 135.008 1093.74 133.55 1096.92 134.926C1107.11 139.329 1117.12 144.42 1126.67 150.042C1129.65 151.799 1130.65 155.641 1128.89 158.621C1128.46 159.345 1127.91 159.955 1127.28 160.435C1125.31 161.922 1122.57 162.167 1120.31 160.843ZM1062.01 135.632C1051.85 132.66 1041.41 130.292 1030.99 128.601C1027.57 128.043 1025.25 124.825 1025.81 121.411C1026.36 118.005 1029.58 115.678 1032.99 116.23C1043.93 118.006 1054.87 120.488 1065.53 123.604C1068.85 124.574 1070.76 128.058 1069.79 131.379C1069.39 132.716 1068.59 133.826 1067.56 134.609C1066.03 135.767 1063.99 136.211 1062.01 135.632ZM999.324 125.418C988.748 125.007 978.051 125.249 967.521 126.13C964.076 126.421 961.046 123.858 960.755 120.409C960.465 116.96 963.022 113.926 966.476 113.643C977.51 112.717 988.725 112.467 999.809 112.892C1003.27 113.029 1005.96 115.939 1005.83 119.394C1005.75 121.347 1004.79 123.057 1003.35 124.151C1002.23 124.996 1000.83 125.475 999.324 125.418ZM936.056 130.731C925.708 132.903 915.402 135.742 905.417 139.174C902.147 140.299 898.58 138.557 897.457 135.286C896.335 132.015 898.068 128.46 901.346 127.322C911.814 123.724 922.629 120.745 933.484 118.466C936.87 117.759 940.192 119.925 940.901 123.31C941.414 125.761 940.421 128.179 938.55 129.596C937.836 130.136 936.995 130.535 936.056 130.731ZM876.035 151.347C866.566 155.977 857.262 161.265 848.383 167.068C845.484 168.956 841.602 168.143 839.712 165.245C837.819 162.351 838.659 158.513 841.53 156.569C850.843 150.492 860.597 144.947 870.528 140.09C873.638 138.571 877.391 139.859 878.911 142.967C880.248 145.7 879.41 148.936 877.069 150.709C876.751 150.95 876.407 151.165 876.035 151.347ZM791.005 208.4C788.465 206.049 788.313 202.088 790.664 199.548C797.171 192.518 804.176 185.724 811.461 179.371C812.563 178.399 813.675 177.449 814.792 176.503C817.358 174.207 821.391 174.606 823.621 177.262C825.852 179.909 825.511 183.858 822.866 186.091C821.814 186.973 820.771 187.87 819.719 188.797C812.744 194.876 806.063 201.357 799.856 208.059C799.601 208.336 799.325 208.584 799.037 208.802C796.66 210.603 793.266 210.495 791.005 208.4Z" fill="#91B3FA"/>
</g>
<g opacity="0.3">
<path opacity="0.3" d="M1149.69 601.285C1140.9 607.764 1131.64 613.759 1122.16 619.115C1119.15 620.813 1115.33 619.754 1113.62 616.739C1111.92 613.723 1113.02 609.919 1116 608.201C1125.04 603.098 1133.87 597.377 1142.26 591.195C1145.04 589.14 1148.97 589.737 1151.02 592.521C1153.05 595.285 1152.48 599.168 1149.76 601.233C1149.76 601.234 1149.71 601.269 1149.69 601.285ZM1166.03 579.991C1163.66 577.473 1163.78 573.506 1166.3 571.137C1173.88 564.002 1181.1 556.336 1187.77 548.349C1189.98 545.715 1193.94 545.336 1196.6 547.559C1199.25 549.776 1199.61 553.722 1197.39 556.382C1190.4 564.751 1182.84 572.785 1174.89 580.259C1174.72 580.417 1174.55 580.562 1174.37 580.699C1171.85 582.605 1168.25 582.348 1166.03 579.991ZM1092.65 633.476C1082.55 637.64 1072.11 641.225 1061.62 644.127C1058.28 645.049 1054.83 643.091 1053.91 639.758C1052.98 636.422 1054.93 632.986 1058.27 632.047C1068.28 629.281 1078.23 625.863 1087.87 621.894C1091.07 620.576 1094.74 622.101 1096.05 625.295C1097.16 627.986 1096.26 631.001 1094.04 632.679C1093.62 632.996 1093.16 633.266 1092.65 633.476ZM1208.18 531.803C1205.27 529.929 1204.44 526.049 1206.31 523.142C1211.95 514.395 1217.11 505.217 1221.64 495.854C1223.15 492.745 1226.9 491.442 1230.01 492.941C1233.12 494.45 1234.43 498.197 1232.92 501.312C1228.17 511.132 1222.76 520.762 1216.84 529.934C1216.43 530.567 1215.93 531.102 1215.36 531.532C1213.32 533.076 1210.45 533.267 1208.18 531.803ZM1029.54 650.921C1018.76 652.531 1007.76 653.495 996.858 653.793C993.399 653.887 990.518 651.157 990.424 647.698C990.329 644.238 993.054 641.354 996.519 641.263C1006.92 640.985 1017.4 640.062 1027.69 638.523C1031.11 638.013 1034.3 640.371 1034.81 643.798C1035.16 646.142 1034.16 648.381 1032.39 649.72C1031.58 650.332 1030.61 650.759 1029.54 650.921ZM964.073 652.717C953.198 651.695 942.288 650.003 931.649 647.69C928.269 646.956 926.125 643.623 926.86 640.241C927.591 636.863 930.928 634.712 934.314 635.448C944.459 637.651 954.867 639.263 965.246 640.239C968.691 640.562 971.221 643.619 970.898 647.064C970.726 648.883 969.793 650.449 968.44 651.475C967.235 652.387 965.696 652.869 964.073 652.717ZM900.059 638.786C889.737 635.19 879.547 630.926 869.776 626.121C866.668 624.591 865.392 620.838 866.919 617.732C868.444 614.627 872.204 613.353 875.304 614.874C884.622 619.46 894.338 623.524 904.179 626.947C907.448 628.086 909.175 631.66 908.033 634.926C907.614 636.141 906.856 637.137 905.905 637.857C904.292 639.08 902.116 639.5 900.059 638.786Z" fill="#91B3FA"/>
<path opacity="0.3" d="M1243.34 473.644C1244.31 472.914 1245.07 471.899 1245.49 470.669C1247.22 465.592 1248.8 460.441 1250.2 455.359C1251.12 452.024 1249.16 448.572 1245.82 447.652C1242.49 446.744 1239.04 448.696 1238.12 452.03C1236.79 456.877 1235.27 461.791 1233.63 466.637C1232.51 469.913 1234.27 473.473 1237.54 474.585C1239.59 475.278 1241.74 474.858 1243.34 473.644Z" fill="#91B3FA"/>
</g>
<path d="M1192.01 365.976C1192.06 364.623 1191.25 363.388 1189.98 362.901L1153.96 348.996C1150.49 331.301 1144.17 314.032 1134.96 297.918L1153.11 263.863C1153.75 262.668 1153.56 261.202 1152.64 260.21L1121.09 226.292C1120.17 225.3 1118.72 225.003 1117.49 225.551L1082.2 241.182C1066.8 230.832 1050.04 223.276 1032.64 218.529L1021.38 181.592C1020.99 180.297 1019.82 179.395 1018.46 179.346L972.178 177.665C970.826 177.616 969.59 178.43 969.103 179.693L955.199 215.716C937.503 219.188 920.234 225.507 904.12 234.712L870.065 216.563C868.87 215.927 867.404 216.118 866.413 217.039L832.494 248.58C831.503 249.502 831.206 250.951 831.754 252.188L847.385 287.471C837.035 302.875 829.479 319.64 824.733 337.037L787.795 348.291C786.501 348.685 785.598 349.858 785.55 351.21L783.868 397.497C783.819 398.849 784.634 400.084 785.896 400.571L821.921 414.476C825.392 432.171 831.711 449.44 840.916 465.554L822.767 499.609C822.13 500.803 822.321 502.27 823.243 503.261L854.784 537.18C855.706 538.171 857.154 538.468 858.392 537.92L893.674 522.289C909.078 532.639 925.843 540.194 943.24 544.941L954.494 581.878C954.888 583.173 956.061 584.074 957.414 584.124L1003.7 585.805C1005.05 585.854 1006.29 585.039 1006.78 583.777L1020.68 547.753C1038.37 544.281 1055.64 537.962 1071.76 528.757L1105.81 546.907C1107.01 547.543 1108.47 547.352 1109.47 546.43L1143.38 514.889C1144.38 513.967 1144.67 512.518 1144.12 511.281L1128.49 475.999C1138.84 460.595 1146.4 443.83 1151.15 426.433L1188.08 415.179C1189.38 414.785 1190.28 413.612 1190.33 412.26L1192.01 365.976Z" fill="#91B3FA"/>
<path d="M1010.74 423.284C999.64 429.378 986.832 430.781 974.678 427.237C962.527 423.698 952.479 415.635 946.391 404.534C933.821 381.626 942.226 352.812 965.145 340.184C988.061 327.619 1016.92 336.033 1029.49 358.938C1035.58 370.036 1036.98 382.842 1033.44 394.995C1030.56 404.874 1024.69 413.362 1016.63 419.464C1014.78 420.866 1012.81 422.144 1010.74 423.284ZM957.374 398.503C961.854 406.67 969.244 412.601 978.187 415.208C987.124 417.812 996.546 416.779 1004.71 412.301C1012.87 407.811 1018.8 400.431 1021.41 391.488C1024.02 382.552 1022.98 373.13 1018.5 364.969C1009.26 348.117 988.028 341.928 971.172 351.17C969.652 352.007 968.22 352.937 966.876 353.955C953.328 364.213 948.964 383.175 957.374 398.503Z" fill="#BDD0FB"/>
<path d="M1058.15 475.771C1061.31 473.378 1064.37 470.804 1067.34 468.052C1073.22 462.582 1078.56 456.508 1083.2 449.981C1083.41 449.686 1083.62 449.391 1083.82 449.097C1085.42 446.815 1085.28 443.841 1083.69 441.732C1083.3 441.22 1082.82 440.759 1082.27 440.373C1079.43 438.392 1075.54 439.102 1073.55 441.927C1069.27 448.062 1064.31 453.762 1058.8 458.872L1058.8 458.874C1058.5 459.155 1058.19 459.434 1057.89 459.709C1044.76 471.686 1029.14 479.936 1012.33 484.072C1003.21 486.316 993.721 487.343 984.085 487.08C984.007 487.078 983.929 487.076 983.85 487.074C983.608 487.064 983.371 487.06 983.132 487.049C954.972 486.024 928.894 474.098 909.705 453.461C907.219 450.792 904.892 448.018 902.72 445.15C888.11 425.851 880.644 402.309 881.532 377.79C882.557 349.629 894.487 323.556 915.121 304.369C935.75 285.201 962.631 275.176 990.79 276.194C1018.95 277.219 1045.03 289.145 1064.22 309.782C1066.66 312.406 1068.96 315.148 1071.11 317.986C1080.43 330.3 1086.95 344.511 1090.16 359.628C1090.36 360.56 1090.75 361.398 1091.29 362.108C1092.71 363.981 1095.13 364.978 1097.59 364.456C1100.97 363.729 1103.13 360.415 1102.41 357.023C1098.83 340.108 1091.53 324.204 1081.11 310.43C1078.7 307.25 1076.13 304.184 1073.4 301.248C1051.93 278.158 1022.75 264.815 991.242 263.67C959.739 262.528 929.672 273.692 906.588 295.187C883.499 316.655 870.154 345.826 869.013 377.335C868.013 404.763 876.369 431.101 892.715 452.692C895.142 455.897 897.748 459.004 900.524 461.99C942.094 506.687 1010.49 511.855 1058.15 475.771Z" fill="#BDD0FB"/>
<path d="M1193.49 2140.8L1132.26 2563.36H1842.66L1750.13 2140.8H1193.49Z" fill="url(#paint1_linear)"/>
<path d="M0.145996 787.798V2045.51C0.145996 2148.97 82.594 2233.58 186.023 2236.25C645.401 2248.1 2252.08 2276.82 2689.38 2270.37C2764.54 2269.26 2825.43 2209.12 2827.59 2133.98C2836.03 1841.8 2849.72 1139.19 2799.04 813.002C2788.37 744.31 2730.39 692.943 2660.91 690.721C2276.01 678.408 572.817 639.31 135.724 649.126C60.339 650.818 0.145996 712.396 0.145996 787.798Z" fill="url(#paint2_linear)"/>
<path d="M79.063 781.676V1976.59C79.063 2037 127.554 2086.22 187.955 2087.12L2626.47 2117.25C2686.35 2118.15 2735.44 2069.97 2735.66 2010.08L2739.74 825.84C2739.9 783.018 2705.78 747.93 2662.97 746.889L166.388 696.45C118.507 695.285 79.063 733.782 79.063 781.676Z" fill="#91B3FA"/>
<path d="M2754.02 2166.22C2754 2166.22 2753.98 2166.22 2753.96 2166.22L79.005 2120.64C77.138 2120.61 75.65 2119.07 75.682 2117.21C75.713 2115.33 77.274 2113.91 79.121 2113.88L2754.08 2159.46C2755.94 2159.49 2757.43 2161.03 2757.4 2162.9C2757.37 2164.75 2755.86 2166.22 2754.02 2166.22Z" fill="#91B3FA"/>
<path d="M1442.93 2221.89C1425.72 2221.89 1411.72 2207.88 1411.72 2190.67C1411.72 2173.46 1425.72 2159.46 1442.93 2159.46C1460.14 2159.46 1474.14 2173.46 1474.14 2190.67C1474.14 2207.88 1460.14 2221.89 1442.93 2221.89ZM1442.93 2166.22C1429.45 2166.22 1418.48 2177.19 1418.48 2190.67C1418.48 2204.15 1429.45 2215.12 1442.93 2215.12C1456.41 2215.12 1467.38 2204.15 1467.38 2190.67C1467.38 2177.19 1456.41 2166.22 1442.93 2166.22Z" fill="#91B3FA"/>
<path d="M1995.68 2675.72H955.96C927.714 2675.72 906.502 2655.61 911.964 2634.01L925.305 2581.25C929.317 2565.38 946.774 2553.73 967.508 2553.09L1969.83 2521.81C1991.49 2521.13 2010.68 2532.63 2015.4 2549.12L2039.45 2633.16C2045.69 2655 2024.38 2675.72 1995.68 2675.72Z" fill="url(#paint3_linear)"/>
<path d="M1515.66 2567.37C1513.82 2567.37 1512.31 2565.89 1512.28 2564.04C1512.25 2562.17 1513.74 2560.64 1515.61 2560.61L1558.56 2559.98C1560.36 2559.99 1561.97 2561.45 1561.99 2563.31C1562.02 2565.18 1560.53 2566.72 1558.66 2566.75L1515.71 2567.37H1515.66Z" fill="#91B3FA"/>
<path d="M950.458 2646.62C950.28 2646.62 950.1 2646.61 949.92 2646.58C948.076 2646.29 946.819 2644.55 947.115 2642.71L953.243 2604.33C956.534 2583.72 974.075 2568.53 994.954 2568.22L1450.51 2561.56H1450.56C1452.41 2561.56 1453.92 2563.04 1453.94 2564.89C1453.97 2566.76 1452.48 2568.3 1450.61 2568.32L995.053 2574.99C977.468 2575.25 962.692 2588.03 959.92 2605.4L953.791 2643.77C953.526 2645.44 952.089 2646.62 950.458 2646.62Z" fill="#91B3FA"/>
<g opacity="0.53">
<path opacity="0.53" d="M1496.98 865.2H1432.84V1996.46H1496.98V865.2Z" fill="white"/>
<path opacity="0.53" d="M1604.14 865.2H1540.01V1996.46H1604.14V865.2Z" fill="white"/>
<path opacity="0.53" d="M1711.31 865.2H1647.17V1996.46H1711.31V865.2Z" fill="white"/>
<path opacity="0.53" d="M1818.48 865.2H1754.34V1996.46H1818.48V865.2Z" fill="white"/>
<path opacity="0.53" d="M1925.65 865.2H1861.51V1996.46H1925.65V865.2Z" fill="white"/>
<path opacity="0.53" d="M2032.81 865.2H1968.68V1996.46H2032.81V865.2Z" fill="white"/>
<path opacity="0.53" d="M2139.98 865.2H2075.84V1996.46H2139.98V865.2Z" fill="white"/>
</g>
<path d="M1496.98 1404.43H1432.84V1996.46H1496.98V1404.43Z" fill="url(#paint4_linear)"/>
<path d="M1604.14 1607.9H1540.01V1996.46H1604.14V1607.9Z" fill="url(#paint5_linear)"/>
<path d="M1711.31 1105.03H1647.17V1996.46H1711.31V1105.03Z" fill="url(#paint6_linear)"/>
<path d="M1818.48 1782.31H1754.34V1996.46H1818.48V1782.31Z" fill="url(#paint7_linear)"/>
<path d="M1925.65 1224.21H1861.51V1996.47H1925.65V1224.21Z" fill="url(#paint8_linear)"/>
<path d="M2032.81 1357.92H1968.68V1996.46H2032.81V1357.92Z" fill="url(#paint9_linear)"/>
<path d="M2139.98 1503.26H2075.84V1996.47H2139.98V1503.26Z" fill="url(#paint10_linear)"/>
<path opacity="0.57" d="M375.035 813.51C288.982 813.51 219.223 883.269 219.223 969.322C219.223 1055.38 288.982 1125.13 375.035 1125.13C461.088 1125.13 530.847 1055.38 530.847 969.322C530.847 883.269 461.088 813.51 375.035 813.51ZM375.035 1058.09C326.009 1058.09 286.265 1018.35 286.265 969.321C286.265 920.295 326.009 880.551 375.035 880.551C424.06 880.551 463.804 920.295 463.804 969.321C463.804 1018.35 424.06 1058.09 375.035 1058.09Z" fill="white"/>
<path d="M620.283 935.055H157.446V1130.93H620.283V935.055Z" fill="url(#paint11_linear)"/>
<path opacity="0.57" d="M754.859 813.51C668.806 813.51 599.047 883.269 599.047 969.322C599.047 1055.38 668.806 1125.13 754.859 1125.13C840.912 1125.13 910.672 1055.38 910.672 969.322C910.671 883.269 840.912 813.51 754.859 813.51ZM754.859 1058.09C705.833 1058.09 666.09 1018.35 666.09 969.321C666.09 920.295 705.834 880.551 754.859 880.551C803.885 880.551 843.629 920.295 843.629 969.321C843.628 1018.35 803.885 1058.09 754.859 1058.09Z" fill="white"/>
<path d="M1000.11 859.346H537.27V1130.93H1000.11V859.346Z" fill="url(#paint12_linear)"/>
<path opacity="0.57" d="M1134.68 813.51C1048.63 813.51 978.871 883.269 978.871 969.322C978.871 1055.38 1048.63 1125.13 1134.68 1125.13C1220.74 1125.13 1290.5 1055.38 1290.5 969.322C1290.5 883.269 1220.74 813.51 1134.68 813.51ZM1134.68 1058.09C1085.66 1058.09 1045.91 1018.35 1045.91 969.321C1045.91 920.295 1085.66 880.551 1134.68 880.551C1183.71 880.551 1223.45 920.295 1223.45 969.321C1223.45 1018.35 1183.71 1058.09 1134.68 1058.09Z" fill="white"/>
<path d="M1379.93 1032.99H917.093V1130.93H1379.93V1032.99Z" fill="url(#paint13_linear)"/>
<path opacity="0.44" d="M1254.33 2002.72L254.847 1995.22C235.129 1995.07 219.223 1979.04 219.223 1959.32V1445.81C219.223 1425.98 235.293 1409.91 255.116 1409.91H1254.6C1274.42 1409.91 1290.49 1425.98 1290.49 1445.81V1966.83C1290.5 1986.76 1274.26 2002.87 1254.33 2002.72Z" fill="white"/>
<path opacity="0.44" d="M1099.3 1641.76L970.778 1505.88L786.494 1706.32L656.46 1566.01L534.506 1703.87L440.986 1590.26L256.681 1782.14V1920.9C256.681 1939.24 271.475 1954.15 289.813 1954.28L1219.4 1961.27C1237.94 1961.41 1253.04 1946.42 1253.04 1927.89V1550.39L1099.3 1641.76Z" fill="white"/>
<path d="M1103.47 1637.99H1100.09V1961.27H1103.47V1637.99Z" fill="white"/>
<path d="M972.469 1505.88H969.088V1959.4H972.469V1505.88Z" fill="white"/>
<path d="M788.185 1703.87H784.804V1958.02H788.185V1703.87Z" fill="white"/>
<path d="M661.606 1570.98H658.225V1958.02H661.606V1570.98Z" fill="white"/>
<path d="M536.198 1699.75H532.817V1958.02H536.198V1699.75Z" fill="white"/>
<path d="M444.659 1580.62H441.278V1955.54H444.659V1580.62Z" fill="white"/>
<path d="M442.969 1608.86C458.566 1608.86 471.21 1596.22 471.21 1580.62C471.21 1565.02 458.566 1552.38 442.969 1552.38C427.372 1552.38 414.728 1565.02 414.728 1580.62C414.728 1596.22 427.372 1608.86 442.969 1608.86Z" fill="url(#paint14_linear)"/>
<path d="M534.508 1718.36C544.783 1718.36 553.112 1710.03 553.112 1699.75C553.112 1689.48 544.783 1681.15 534.508 1681.15C524.233 1681.15 515.904 1689.48 515.904 1699.75C515.904 1710.03 524.233 1718.36 534.508 1718.36Z" fill="url(#paint15_linear)"/>
<path d="M659.915 1589.59C670.19 1589.59 678.519 1581.26 678.519 1570.98C678.519 1560.71 670.19 1552.38 659.915 1552.38C649.64 1552.38 641.311 1560.71 641.311 1570.98C641.311 1581.26 649.64 1589.59 659.915 1589.59Z" fill="url(#paint16_linear)"/>
<path d="M786.495 1722.48C796.77 1722.48 805.099 1714.15 805.099 1703.87C805.099 1693.6 796.77 1685.27 786.495 1685.27C776.22 1685.27 767.891 1693.6 767.891 1703.87C767.891 1714.15 776.22 1722.48 786.495 1722.48Z" fill="url(#paint17_linear)"/>
<path d="M970.779 1524.48C981.054 1524.48 989.383 1516.16 989.383 1505.88C989.383 1495.61 981.054 1487.28 970.779 1487.28C960.504 1487.28 952.175 1495.61 952.175 1505.88C952.175 1516.16 960.504 1524.48 970.779 1524.48Z" fill="url(#paint18_linear)"/>
<path d="M1101.78 1656.59C1112.05 1656.59 1120.38 1648.26 1120.38 1637.99C1120.38 1627.71 1112.05 1619.38 1101.78 1619.38C1091.5 1619.38 1083.17 1627.71 1083.17 1637.99C1083.17 1648.26 1091.5 1656.59 1101.78 1656.59Z" fill="url(#paint19_linear)"/>
<g opacity="0.48">
<path opacity="0.48" d="M508.024 1324.42H234.038C222.577 1324.42 213.285 1330.89 213.285 1338.87C213.285 1346.85 222.576 1353.32 234.038 1353.32H508.024C519.486 1353.32 528.777 1346.85 528.777 1338.87C528.777 1330.89 519.486 1324.42 508.024 1324.42Z" fill="white"/>
<path opacity="0.48" d="M508.024 1260.42H234.038C222.577 1260.42 213.285 1266.89 213.285 1274.88C213.285 1282.86 222.576 1289.33 234.038 1289.33H508.024C519.486 1289.33 528.777 1282.86 528.777 1274.88C528.777 1266.89 519.486 1260.42 508.024 1260.42Z" fill="white"/>
<path opacity="0.48" d="M508.024 1196.43H234.038C222.577 1196.43 213.285 1202.9 213.285 1210.88C213.285 1218.87 222.576 1225.34 234.038 1225.34H508.024C519.486 1225.34 528.777 1218.87 528.777 1210.88C528.777 1202.9 519.486 1196.43 508.024 1196.43Z" fill="white"/>
</g>
<g opacity="0.48">
<path opacity="0.48" d="M888.883 1324.42H614.897C603.436 1324.42 594.144 1330.89 594.144 1338.87C594.144 1346.85 603.435 1353.32 614.897 1353.32H888.883C900.344 1353.32 909.636 1346.85 909.636 1338.87C909.636 1330.89 900.344 1324.42 888.883 1324.42Z" fill="white"/>
<path opacity="0.48" d="M888.883 1260.42H614.897C603.436 1260.42 594.144 1266.89 594.144 1274.88C594.144 1282.86 603.435 1289.33 614.897 1289.33H888.883C900.344 1289.33 909.636 1282.86 909.636 1274.88C909.636 1266.89 900.344 1260.42 888.883 1260.42Z" fill="white"/>
<path opacity="0.48" d="M888.883 1196.43H614.897C603.436 1196.43 594.144 1202.9 594.144 1210.88C594.144 1218.87 603.435 1225.34 614.897 1225.34H888.883C900.344 1225.34 909.636 1218.87 909.636 1210.88C909.636 1202.9 900.344 1196.43 888.883 1196.43Z" fill="white"/>
</g>
<g opacity="0.48">
<path opacity="0.48" d="M1269.74 1324.42H995.756C984.294 1324.42 975.003 1330.89 975.003 1338.87C975.003 1346.85 984.294 1353.32 995.756 1353.32H1269.74C1281.2 1353.32 1290.49 1346.85 1290.49 1338.87C1290.49 1330.89 1281.2 1324.42 1269.74 1324.42Z" fill="white"/>
<path opacity="0.48" d="M1269.74 1260.42H995.756C984.294 1260.42 975.003 1266.89 975.003 1274.88C975.003 1282.86 984.294 1289.33 995.756 1289.33H1269.74C1281.2 1289.33 1290.49 1282.86 1290.49 1274.88C1290.49 1266.89 1281.2 1260.42 1269.74 1260.42Z" fill="white"/>
<path opacity="0.48" d="M1269.74 1196.43H995.756C984.294 1196.43 975.003 1202.9 975.003 1210.88C975.003 1218.87 984.294 1225.34 995.756 1225.34H1269.74C1281.2 1225.34 1290.49 1218.87 1290.49 1210.88C1290.49 1202.9 1281.2 1196.43 1269.74 1196.43Z" fill="white"/>
</g>
<path d="M2428.96 1511.33C2498.98 1511.33 2555.74 1454.57 2555.74 1384.56C2555.74 1314.54 2498.98 1257.78 2428.96 1257.78C2358.94 1257.78 2302.18 1314.54 2302.18 1384.56C2302.18 1454.57 2358.94 1511.33 2428.96 1511.33Z" fill="url(#paint20_linear)"/>
<path d="M2504.29 1357.76C2508.21 1367.3 2510.39 1377.75 2510.39 1388.7C2510.39 1433.68 2473.93 1470.14 2428.96 1470.14C2383.98 1470.14 2347.53 1433.68 2347.53 1388.7C2347.53 1343.73 2383.98 1307.27 2428.96 1307.27C2430.34 1307.27 2431.71 1307.31 2433.07 1307.38V1286.73C2431.7 1286.68 2430.33 1286.65 2428.96 1286.65C2372.59 1286.65 2326.9 1332.34 2326.9 1388.71C2326.9 1445.07 2372.59 1490.77 2428.96 1490.77C2485.32 1490.77 2531.02 1445.07 2531.02 1388.71C2531.02 1374.83 2528.24 1361.6 2523.23 1349.54L2504.29 1357.76Z" fill="#91B3FA"/>
<path opacity="0.5" d="M2533.16 1565.04H2326.57C2313.6 1565.04 2303.09 1575.55 2303.09 1588.52C2303.09 1601.48 2313.6 1611.99 2326.57 1611.99H2533.16C2546.13 1611.99 2556.64 1601.48 2556.64 1588.52C2556.64 1575.55 2546.13 1565.04 2533.16 1565.04Z" fill="white"/>
<path d="M2428.42 1103.86C2498.43 1103.86 2555.19 1047.1 2555.19 977.086C2555.19 907.07 2498.43 850.31 2428.42 850.31C2358.4 850.31 2301.64 907.07 2301.64 977.086C2301.64 1047.1 2358.4 1103.86 2428.42 1103.86Z" fill="url(#paint21_linear)"/>
<path d="M2471.51 1050.13C2458.95 1058.06 2444.08 1062.67 2428.12 1062.67C2383.15 1062.67 2346.69 1026.21 2346.69 981.236C2346.69 936.263 2383.15 899.804 2428.12 899.804C2429.5 899.804 2430.87 899.84 2432.23 899.908V879.266C2430.87 879.212 2429.5 879.177 2428.12 879.177C2371.76 879.177 2326.06 924.871 2326.06 981.236C2326.06 1037.6 2371.76 1083.3 2428.12 1083.3C2447.79 1083.3 2466.16 1077.73 2481.74 1068.08L2471.51 1050.13Z" fill="#91B3FA"/>
<path opacity="0.5" d="M2533.71 1157.56H2327.11C2314.14 1157.56 2303.63 1168.08 2303.63 1181.04C2303.63 1194.01 2314.14 1204.52 2327.11 1204.52H2533.71C2546.67 1204.52 2557.19 1194.01 2557.19 1181.04C2557.19 1168.08 2546.67 1157.56 2533.71 1157.56Z" fill="white"/>
<path opacity="0.91" d="M2429.41 1920.88C2499.43 1920.88 2556.19 1864.12 2556.19 1794.1C2556.19 1724.09 2499.43 1667.33 2429.41 1667.33C2359.4 1667.33 2302.64 1724.09 2302.64 1794.1C2302.64 1864.12 2359.4 1920.88 2429.41 1920.88Z" fill="white"/>
<path d="M2498.46 1839.89C2483.8 1861.4 2459.11 1875.53 2431.11 1875.53C2386.14 1875.53 2349.68 1839.08 2349.68 1794.1C2349.68 1749.13 2386.14 1712.67 2431.11 1712.67C2432.49 1712.67 2433.86 1712.71 2435.22 1712.77V1692.13C2433.86 1692.08 2432.49 1692.04 2431.11 1692.04C2374.75 1692.04 2329.05 1737.74 2329.05 1794.1C2329.05 1850.47 2374.75 1896.16 2431.11 1896.16C2465.98 1896.16 2496.76 1878.67 2515.17 1851.99L2498.46 1839.89Z" fill="url(#paint22_linear)"/>
<path opacity="0.5" d="M2326.11 2017.39H2532.71C2545.68 2017.39 2556.19 2006.88 2556.19 1993.91C2556.19 1980.94 2545.68 1970.43 2532.71 1970.43H2326.11C2313.15 1970.43 2302.64 1980.94 2302.64 1993.91C2302.64 2006.88 2313.15 2017.39 2326.11 2017.39Z" fill="white"/>
<path d="M2473.14 2708.3C2473.14 2708.3 2478.62 2739.27 2481.3 2769.93C2482.35 2781.91 2473.11 2792.32 2461.09 2792.82C2420.26 2794.52 2332.92 2797.83 2301.58 2796.43C2296.87 2796.22 2293.79 2791.4 2295.53 2787.01C2296.99 2783.34 2299.81 2780.37 2303.4 2778.72L2447.67 2712.42L2473.14 2708.3Z" fill="url(#paint23_linear)"/>
<path d="M2477.63 2690.1L2473.23 2727.15C2473.23 2727.15 2447.96 2738.91 2430.7 2725.66L2441.17 2684.38L2477.63 2690.1Z" fill="url(#paint24_linear)"/>
<path d="M2474.32 1993.56C2476.22 2003.23 2484.51 2476.37 2433.94 2688.4C2433.11 2691.86 2434.87 2695.43 2438.16 2696.77C2445.92 2699.94 2461.13 2704.53 2479.35 2705.15C2484.99 2705.33 2490.05 2701.67 2491.65 2696.25C2506.1 2647.06 2575.38 2400.58 2584.42 2165.12C2594.51 1902.03 2584.42 2156.17 2584.42 2156.17L2578.49 1993.54L2474.32 1993.56Z" fill="url(#paint25_linear)"/>
<path d="M2639.1 2724.46C2639.1 2724.46 2647.81 2740.09 2656.25 2781.64C2657.77 2789.15 2652.53 2796.33 2644.9 2797.08C2631.42 2798.4 2610.67 2800.11 2594.04 2799.99C2586.37 2799.94 2580.39 2793.27 2581.32 2785.66C2583.16 2770.49 2588.9 2745.61 2606.62 2726.22L2639.1 2724.46Z" fill="url(#paint26_linear)"/>
<path d="M2646.75 2676.8L2636.48 2732.83C2636.48 2732.83 2626.33 2740.38 2606.24 2734.91L2611.14 2674.62L2646.75 2676.8Z" fill="url(#paint27_linear)"/>
<path d="M2674.5 2008.08C2715.86 2257.71 2665.53 2625.07 2648.55 2696.97C2647.51 2701.37 2643.96 2704.74 2639.5 2705.48C2631.92 2706.74 2619.45 2707.76 2607.15 2704.19C2602.91 2702.96 2599.93 2699.14 2599.76 2694.73C2597.48 2636.6 2601.58 2279.74 2563.04 2138.71C2561.09 2131.56 2556.72 2125.33 2550.68 2121.03L2475.88 2067.85L2470.14 1981.89L2674.5 2008.08Z" fill="url(#paint28_linear)"/>
<path d="M2410.93 1535.07C2534.89 1533.02 2671.67 1567.62 2671.67 1567.62C2708.61 1783.22 2678.13 2031.9 2678.13 2031.9C2582.16 2057.07 2473.91 2016.51 2473.91 2016.51C2457.96 1926.4 2383.54 1672.78 2383.54 1672.78C2322.97 1665.26 2273.08 1647.79 2231.99 1624.69C2263.33 1588.36 2278.1 1542.13 2284.52 1514.81C2328.35 1528.43 2372.7 1535.7 2410.93 1535.07Z" fill="url(#paint29_linear)"/>
<path d="M2044.78 1352.49C2056.95 1337.78 2072.37 1344.74 2072.37 1344.74C2090.61 1421.79 2186.26 1484.27 2284.52 1514.81C2278.1 1542.13 2263.33 1588.36 2231.99 1624.69C2068.91 1532.99 2044.78 1352.49 2044.78 1352.49Z" fill="url(#paint30_linear)"/>
<path d="M2047.73 1356.23C2046.46 1360.28 2061.21 1366.45 2069.9 1349.88C2070.2 1341.94 2075.03 1307.92 2070.29 1301.45C2045.02 1267.01 1996.03 1223.82 1996.03 1223.82C1987.75 1231.99 1994.57 1240.02 1994.57 1240.02L2018.34 1264.77C2013.37 1273.76 2007.3 1281.34 2004.46 1292.2C2002.31 1300.43 2003.63 1309.23 2007.78 1316.71C2011.95 1324.23 2017.64 1334 2023.02 1341.65C2033.21 1356.12 2047.73 1356.23 2047.73 1356.23Z" fill="url(#paint31_linear)"/>
<path d="M2028.73 1280.84L2050.39 1299.2L2057.19 1317.47L2037.88 1338.9C2037.88 1338.9 2031.39 1302.63 2026.56 1294.78C2021.74 1286.93 2024.24 1283.13 2028.73 1280.84Z" fill="url(#paint32_linear)"/>
<path d="M2624.12 1687.65L2671.67 1567.62C2671.67 1567.62 2787.45 1646.29 2806.49 1746.04C2784.61 1747.65 2744.8 1753.34 2705.84 1773.01C2697.27 1725.91 2624.12 1687.65 2624.12 1687.65Z" fill="url(#paint33_linear)"/>
<path d="M2522.94 1800.59C2522.94 1800.59 2652.93 1874.06 2696.8 1811.33C2705.9 1798.3 2708.08 1785.35 2705.84 1773.01C2744.8 1753.34 2784.61 1747.65 2806.49 1746.04C2812.23 1776.1 2809.2 1808.09 2791.53 1840.41C2714.7 1980.96 2505.73 1832.64 2505.73 1832.64L2522.94 1800.59Z" fill="url(#paint34_linear)"/>
<path d="M2538.56 1893.54L2467.61 1645.77C2466.8 1642.96 2464.4 1640.91 2461.5 1640.57C2448.64 1639.07 2411.39 1634.86 2368.39 1631.22C2316.59 1626.84 2256.43 1623.29 2220.48 1626.31C2215.37 1626.74 2212.28 1632.14 2214.56 1636.74C2235 1678.1 2319.08 1846.33 2361.19 1901.44C2362.59 1903.27 2364.75 1904.33 2367.04 1904.31L2531.65 1902.78C2536.44 1902.74 2539.87 1898.14 2538.56 1893.54Z" fill="url(#paint35_linear)"/>
<path d="M2361.03 1609.74L2309.59 1601.17C2306.85 1600.71 2304.61 1603.33 2305.48 1605.97L2310.57 1621.4C2311.02 1622.74 2312.19 1623.71 2313.59 1623.9L2363.09 1630.51C2365.65 1630.85 2367.76 1628.53 2367.17 1626.01L2364.02 1612.54C2363.68 1611.09 2362.5 1609.99 2361.03 1609.74Z" fill="url(#paint36_linear)"/>
<path d="M2399.55 1653.29L2395.31 1631.21C2394.88 1629 2393.06 1627.33 2390.81 1627.1L2286.92 1616.56C2283.42 1616.2 2280.62 1619.41 2281.44 1622.82L2288.05 1650.33C2288.58 1652.53 2290.49 1654.12 2292.75 1654.23L2394.28 1659.34C2397.58 1659.51 2400.17 1656.54 2399.55 1653.29Z" fill="url(#paint37_linear)"/>
<path d="M2521.41 1833.68C2521.41 1833.68 2531.3 1793.04 2527.31 1778.62C2523.32 1764.2 2515.6 1745.66 2489.85 1749.78C2464.11 1753.9 2433.74 1764.75 2433.74 1764.75C2433.74 1764.75 2435.27 1783.53 2454.84 1777.47L2442.7 1786.86C2442.7 1786.86 2444.44 1801.9 2460.97 1793.86L2449.68 1806.31C2449.68 1806.31 2456.78 1818.66 2468.94 1810.74C2481.1 1802.82 2486.93 1838.57 2521.41 1833.68Z" fill="url(#paint38_linear)"/>
<path d="M2536.49 1434.44L2575.93 1548.5C2576.59 1550.39 2575.81 1552.48 2574.06 1553.45C2563.31 1559.39 2524.57 1576.58 2477.89 1546.98C2473.03 1543.9 2469.72 1538.87 2468.98 1533.16L2456.21 1434.44H2536.49V1434.44Z" fill="url(#paint39_linear)"/>
<path d="M2448.19 1316.62C2447 1318.27 2409.94 1447.46 2409.94 1447.46L2484.15 1467.06L2537.48 1349.83C2537.48 1349.83 2468.07 1289 2448.19 1316.62Z" fill="url(#paint40_linear)"/>
<path d="M2508 1358.5C2509.82 1361.4 2510.2 1364.95 2509.03 1368.17L2486.13 1431.15C2485.78 1432.11 2485.32 1433 2484.72 1433.82C2481.42 1438.35 2469.75 1451.94 2456.22 1439.15C2444.68 1428.26 2433.92 1418.4 2423.87 1415.43C2418 1413.69 2411.87 1417.18 2410.2 1423.07C2406.77 1435.2 2400.34 1459.83 2397.69 1482.51C2397.03 1488.19 2400.91 1493.41 2406.53 1494.5C2421.35 1497.41 2450.46 1502.21 2475.21 1500.86C2479.27 1500.64 2482.86 1498.21 2484.59 1494.52C2492.21 1478.3 2513.73 1432.94 2521.78 1421.07C2529.25 1410.04 2547.03 1410.21 2555.17 1410.93C2558.25 1411.2 2561.29 1410.19 2563.59 1408.11C2570.5 1401.89 2581.87 1387.51 2565.53 1370.08C2561.47 1365.74 2561.78 1358.86 2566.03 1354.71C2573.64 1347.28 2581.03 1334.66 2568.62 1318.96C2556.05 1303.06 2539.43 1304.64 2528.58 1308.15C2523.78 1309.71 2518.29 1308.1 2515.52 1303.88C2514.28 1302.01 2512.29 1300.59 2509.08 1300.57C2503.03 1300.51 2498.17 1295.93 2498.18 1289.88C2498.2 1279.5 2494.21 1266.79 2476.54 1261.11C2444.14 1250.69 2423.58 1281.9 2421.35 1305.31C2419.12 1328.72 2454.9 1338.02 2476 1336.63C2491.5 1335.62 2502.99 1350.52 2508 1358.5Z" fill="url(#paint41_linear)"/>
<path d="M2513.09 1444.26C2513.09 1444.26 2518.72 1403.64 2535.65 1401.8C2552.59 1399.97 2568.93 1414.03 2551.89 1436.7C2530.71 1464.9 2513.09 1444.26 2513.09 1444.26Z" fill="url(#paint42_linear)"/>
<defs>
<linearGradient id="paint0_linear" x1="3014.85" y1="3104.15" x2="1127.1" y2="1094.62" gradientUnits="userSpaceOnUse">
<stop stop-color="#DAE3FE"/>
<stop offset="1" stop-color="#E9EFFD"/>
</linearGradient>
<linearGradient id="paint1_linear" x1="1603.61" y1="1988.01" x2="1335.71" y2="3128.31" gradientUnits="userSpaceOnUse">
<stop stop-color="#09005D"/>
<stop offset="1" stop-color="#1A0F91"/>
</linearGradient>
<linearGradient id="paint2_linear" x1="1470.65" y1="105.465" x2="1381.35" y2="2234.92" gradientUnits="userSpaceOnUse">
<stop stop-color="#09005D"/>
<stop offset="1" stop-color="#1A0F91"/>
</linearGradient>
<linearGradient id="paint3_linear" x1="1462.8" y1="1846.51" x2="1476.54" y2="2684.56" gradientUnits="userSpaceOnUse">
<stop stop-color="#09005D"/>
<stop offset="1" stop-color="#1A0F91"/>
</linearGradient>
<linearGradient id="paint4_linear" x1="1573.5" y1="1488.51" x2="1858.57" y2="932.098" gradientUnits="userSpaceOnUse">
<stop stop-color="#4F52FF"/>
<stop offset="1" stop-color="#4042E2"/>
</linearGradient>
<linearGradient id="paint5_linear" x1="1699.67" y1="1553.15" x2="1984.74" y2="996.741" gradientUnits="userSpaceOnUse">
<stop stop-color="#4F52FF"/>
<stop offset="1" stop-color="#4042E2"/>
</linearGradient>
<linearGradient id="paint6_linear" x1="1682.52" y1="1544.36" x2="1967.59" y2="987.953" gradientUnits="userSpaceOnUse">
<stop stop-color="#4F52FF"/>
<stop offset="1" stop-color="#4042E2"/>
</linearGradient>
<linearGradient id="paint7_linear" x1="1904.83" y1="1658.26" x2="2189.9" y2="1101.85" gradientUnits="userSpaceOnUse">
<stop stop-color="#4F52FF"/>
<stop offset="1" stop-color="#4042E2"/>
</linearGradient>
<linearGradient id="paint8_linear" x1="1876.47" y1="1643.73" x2="2161.54" y2="1087.32" gradientUnits="userSpaceOnUse">
<stop stop-color="#4F52FF"/>
<stop offset="1" stop-color="#4042E2"/>
</linearGradient>
<linearGradient id="paint9_linear" x1="1988.48" y1="1701.12" x2="2273.56" y2="1144.72" gradientUnits="userSpaceOnUse">
<stop stop-color="#4F52FF"/>
<stop offset="1" stop-color="#4042E2"/>
</linearGradient>
<linearGradient id="paint10_linear" x1="2102.86" y1="1759.72" x2="2387.93" y2="1203.31" gradientUnits="userSpaceOnUse">
<stop stop-color="#4F52FF"/>
<stop offset="1" stop-color="#4042E2"/>
</linearGradient>
<linearGradient id="paint11_linear" x1="1047.68" y1="56.586" x2="185.586" y2="1334.26" gradientUnits="userSpaceOnUse">
<stop stop-color="#FF928E"/>
<stop offset="1" stop-color="#FE7062"/>
</linearGradient>
<linearGradient id="paint12_linear" x1="1291.12" y1="220.85" x2="429.032" y2="1498.53" gradientUnits="userSpaceOnUse">
<stop stop-color="#FF928E"/>
<stop offset="1" stop-color="#FE7062"/>
</linearGradient>
<linearGradient id="paint13_linear" x1="1592.38" y1="424.117" x2="730.289" y2="1701.79" gradientUnits="userSpaceOnUse">
<stop stop-color="#FF928E"/>
<stop offset="1" stop-color="#FE7062"/>
</linearGradient>
<linearGradient id="paint14_linear" x1="466.589" y1="1509.21" x2="348.091" y2="1867.46" gradientUnits="userSpaceOnUse">
<stop stop-color="#FEBBBA"/>
<stop offset="1" stop-color="#FF928E"/>
</linearGradient>
<linearGradient id="paint15_linear" x1="550.067" y1="1652.71" x2="472.005" y2="1888.71" gradientUnits="userSpaceOnUse">
<stop stop-color="#FEBBBA"/>
<stop offset="1" stop-color="#FF928E"/>
</linearGradient>
<linearGradient id="paint16_linear" x1="675.475" y1="1523.94" x2="597.413" y2="1759.94" gradientUnits="userSpaceOnUse">
<stop stop-color="#FEBBBA"/>
<stop offset="1" stop-color="#FF928E"/>
</linearGradient>
<linearGradient id="paint17_linear" x1="802.054" y1="1656.83" x2="723.993" y2="1892.83" gradientUnits="userSpaceOnUse">
<stop stop-color="#FEBBBA"/>
<stop offset="1" stop-color="#FF928E"/>
</linearGradient>
<linearGradient id="paint18_linear" x1="986.339" y1="1458.84" x2="908.277" y2="1694.84" gradientUnits="userSpaceOnUse">
<stop stop-color="#FEBBBA"/>
<stop offset="1" stop-color="#FF928E"/>
</linearGradient>
<linearGradient id="paint19_linear" x1="1117.34" y1="1590.95" x2="1039.28" y2="1826.95" gradientUnits="userSpaceOnUse">
<stop stop-color="#4F52FF"/>
<stop offset="1" stop-color="#4042E2"/>
</linearGradient>
<linearGradient id="paint20_linear" x1="2302.18" y1="1384.56" x2="2555.74" y2="1384.56" gradientUnits="userSpaceOnUse">
<stop stop-color="#DAE3FE"/>
<stop offset="1" stop-color="#E9EFFD"/>
</linearGradient>
<linearGradient id="paint21_linear" x1="2301.64" y1="977.086" x2="2555.19" y2="977.086" gradientUnits="userSpaceOnUse">
<stop stop-color="#DAE3FE"/>
<stop offset="1" stop-color="#E9EFFD"/>
</linearGradient>
<linearGradient id="paint22_linear" x1="2576.06" y1="1656.54" x2="2183.69" y2="2028.91" gradientUnits="userSpaceOnUse">
<stop stop-color="#FDF53F"/>
<stop offset="1" stop-color="#D93C65"/>
</linearGradient>
<linearGradient id="paint23_linear" x1="2306.14" y1="2665.49" x2="2834.46" y2="3240.15" gradientUnits="userSpaceOnUse">
<stop stop-color="#09005D"/>
<stop offset="1" stop-color="#1A0F91"/>
</linearGradient>
<linearGradient id="paint24_linear" x1="2477.63" y1="2708.17" x2="2430.7" y2="2708.17" gradientUnits="userSpaceOnUse">
<stop stop-color="#FEBBBA"/>
<stop offset="1" stop-color="#FF928E"/>
</linearGradient>
<linearGradient id="paint25_linear" x1="2588.9" y1="2349.35" x2="2433.74" y2="2349.35" gradientUnits="userSpaceOnUse">
<stop stop-color="#4F52FF"/>
<stop offset="1" stop-color="#4042E2"/>
</linearGradient>
<linearGradient id="paint26_linear" x1="2424.66" y1="2556.53" x2="2952.98" y2="3131.19" gradientUnits="userSpaceOnUse">
<stop stop-color="#09005D"/>
<stop offset="1" stop-color="#1A0F91"/>
</linearGradient>
<linearGradient id="paint27_linear" x1="2646.75" y1="2705.76" x2="2606.24" y2="2705.76" gradientUnits="userSpaceOnUse">
<stop stop-color="#FEBBBA"/>
<stop offset="1" stop-color="#FF928E"/>
</linearGradient>
<linearGradient id="paint28_linear" x1="2690.42" y1="2344.27" x2="2470.14" y2="2344.27" gradientUnits="userSpaceOnUse">
<stop stop-color="#4F52FF"/>
<stop offset="1" stop-color="#4042E2"/>
</linearGradient>
<linearGradient id="paint29_linear" x1="-23051.2" y1="-6215.3" x2="-21952.2" y2="-5871.84" gradientUnits="userSpaceOnUse">
<stop stop-color="#FF928E"/>
<stop offset="1" stop-color="#FE7062"/>
</linearGradient>
<linearGradient id="paint30_linear" x1="2284.52" y1="1483.89" x2="2044.78" y2="1483.89" gradientUnits="userSpaceOnUse">
<stop stop-color="#FEBBBA"/>
<stop offset="1" stop-color="#FF928E"/>
</linearGradient>
<linearGradient id="paint31_linear" x1="2098.18" y1="1443.7" x2="2259.06" y2="1809.73" gradientUnits="userSpaceOnUse">
<stop stop-color="#FEBBBA"/>
<stop offset="1" stop-color="#FF928E"/>
</linearGradient>
<linearGradient id="paint32_linear" x1="2045.93" y1="1321.8" x2="1978.8" y2="1218.6" gradientUnits="userSpaceOnUse">
<stop stop-color="#FEBBBA"/>
<stop offset="1" stop-color="#FF928E"/>
</linearGradient>
<linearGradient id="paint33_linear" x1="-23006.2" y1="-6359.35" x2="-21907.2" y2="-6015.89" gradientUnits="userSpaceOnUse">
<stop stop-color="#FF928E"/>
<stop offset="1" stop-color="#FE7062"/>
</linearGradient>
<linearGradient id="paint34_linear" x1="2809.13" y1="1823.48" x2="2505.73" y2="1823.48" gradientUnits="userSpaceOnUse">
<stop stop-color="#FEBBBA"/>
<stop offset="1" stop-color="#FF928E"/>
</linearGradient>
<linearGradient id="paint35_linear" x1="2413.94" y1="1607.77" x2="2247.12" y2="2302.89" gradientUnits="userSpaceOnUse">
<stop stop-color="#09005D"/>
<stop offset="1" stop-color="#1A0F91"/>
</linearGradient>
<linearGradient id="paint36_linear" x1="2309.49" y1="1498.2" x2="2345.02" y2="1654.23" gradientUnits="userSpaceOnUse">
<stop stop-color="#4F52FF"/>
<stop offset="1" stop-color="#4042E2"/>
</linearGradient>
<linearGradient id="paint37_linear" x1="2328.09" y1="1563.65" x2="2345.08" y2="1665.61" gradientUnits="userSpaceOnUse">
<stop stop-color="#4F52FF"/>
<stop offset="1" stop-color="#4042E2"/>
</linearGradient>
<linearGradient id="paint38_linear" x1="2528.26" y1="1791.67" x2="2433.74" y2="1791.67" gradientUnits="userSpaceOnUse">
<stop stop-color="#FEBBBA"/>
<stop offset="1" stop-color="#FF928E"/>
</linearGradient>
<linearGradient id="paint39_linear" x1="2576.16" y1="1499.13" x2="2456.21" y2="1499.13" gradientUnits="userSpaceOnUse">
<stop stop-color="#FEBBBA"/>
<stop offset="1" stop-color="#FF928E"/>
</linearGradient>
<linearGradient id="paint40_linear" x1="2472.23" y1="1335.02" x2="2478.18" y2="1590.65" gradientUnits="userSpaceOnUse">
<stop stop-color="#FEBBBA"/>
<stop offset="1" stop-color="#FF928E"/>
</linearGradient>
<linearGradient id="paint41_linear" x1="2539.17" y1="1443.58" x2="2389.7" y2="1335.96" gradientUnits="userSpaceOnUse">
<stop stop-color="#09005D"/>
<stop offset="1" stop-color="#1A0F91"/>
</linearGradient>
<linearGradient id="paint42_linear" x1="2561.12" y1="1598.06" x2="2534.88" y2="1422.83" gradientUnits="userSpaceOnUse">
<stop stop-color="#FEBBBA"/>
<stop offset="1" stop-color="#FF928E"/>
</linearGradient>
</defs>
</svg>
